<svg xmlns="http://www.w3.org/2000/svg" width="62.72" height="50" viewBox="0 0 62.72 50"><defs><style>.cls-1{fill:#baa360;}</style></defs><title>r-home</title><g id="レイヤー_2" data-name="レイヤー 2"><g id="レイヤー_1-2" data-name="レイヤー 1"><path class="cls-1" d="M41.8,0,31.36,7.62,20.92,0,0,15.28V38.7H12.14V33.56h-7V17.89L20.92,6.37,27,10.81l-6.12,4.47V38.7h21V15.28l-6.13-4.47L41.8,6.37,57.58,17.89V33.56H50V38.7H62.72V15.28ZM36.7,17.89V33.56H26V17.89L31.36,14Z"/><path class="cls-1" d="M14.18,49.87h-6A1.21,1.21,0,0,1,6.91,48.6V47c-.31.1-.62.2-.92.27V46l.92-.24v-.5H8.2v.06a17.29,17.29,0,0,0,1.56-.76H6V43.37H8.93V42H6.24V40.87H8.93V40.2H10.2v.67h2.66V42H10.2v1.37h1.24a11.09,11.09,0,0,0,2.72-3.17h1.32a11.7,11.7,0,0,1-2.33,3.17h2.33v1.14H11.83a15.09,15.09,0,0,1-3.27,1.92l6.66-.77v1.13l-7,.79v.78a.29.29,0,0,0,.3.29H14a3,3,0,0,0,1.46-.37V49.6A3.6,3.6,0,0,1,14.18,49.87Z"/><path class="cls-1" d="M21.21,45.82A7.81,7.81,0,0,1,16.39,50V48.52A5.83,5.83,0,0,0,20.44,43V40.2h1.33v2.61a6.1,6.1,0,0,0,4.11,5.71V50A7.39,7.39,0,0,1,21.21,45.82Z"/><path class="cls-1" d="M28.44,49.58H27.05a26.1,26.1,0,0,0,1-5.49h1.36A28.25,28.25,0,0,1,28.44,49.58Zm3.8-6.69v6.76h-1.3V42.89H27.1V41.55h3.84V40.49h1.3v1.06H36v1.34Zm2.46,6.69a35.62,35.62,0,0,0-.9-5.49h1.32a37.49,37.49,0,0,1,.93,5.49Z"/><path class="cls-1" d="M37.59,46.05V44.61h8.54v1.44Z"/><path class="cls-1" d="M55.6,49.67l-.19-.86a8.32,8.32,0,0,1-3.49.59h-4.1V48.08c.78-1.36,1.29-4.28,1.79-7.51H51c-.51,3.31-1,6.12-1.76,7.49H52a7.88,7.88,0,0,0,3.17-.52L54,42.06h1.35L57,49.67Z"/></g></g></svg>